<mxfile host="app.diagrams.net" modified="2021-08-10T03:16:21.101Z" agent="5.0 (Windows NT 10.0; Win64; x64) AppleWebKit/537.36 (KHTML, like Gecko) Chrome/92.0.4515.107 Safari/537.36 Edg/92.0.902.62" etag="O2begdKTC2nxeZL1pRPa" version="14.9.4" type="github">
  <diagram id="fzEOzRxWvroTZUP6qZbK" name="Page-1">
    <mxGraphModel dx="569" dy="403" grid="1" gridSize="10" guides="1" tooltips="1" connect="1" arrows="1" fold="1" page="1" pageScale="1" pageWidth="850" pageHeight="1100" math="0" shadow="0">
      <root>
        <mxCell id="0" />
        <mxCell id="1" parent="0" />
        <mxCell id="n52Yh-E2T-AflfURcNqM-19" style="edgeStyle=orthogonalEdgeStyle;rounded=0;orthogonalLoop=1;jettySize=auto;html=1;exitX=1;exitY=0.3333333333333333;exitDx=0;exitDy=0;exitPerimeter=0;entryX=0;entryY=0.5;entryDx=0;entryDy=0;" edge="1" parent="1" source="n52Yh-E2T-AflfURcNqM-1" target="n52Yh-E2T-AflfURcNqM-9">
          <mxGeometry relative="1" as="geometry" />
        </mxCell>
        <mxCell id="n52Yh-E2T-AflfURcNqM-1" value="Requester" style="shape=umlActor;verticalLabelPosition=bottom;verticalAlign=top;html=1;outlineConnect=0;" vertex="1" parent="1">
          <mxGeometry x="60" y="70" width="30" height="60" as="geometry" />
        </mxCell>
        <mxCell id="n52Yh-E2T-AflfURcNqM-8" value="Workflow System" style="swimlane;" vertex="1" parent="1">
          <mxGeometry x="150" y="10" width="370" height="490" as="geometry" />
        </mxCell>
        <mxCell id="n52Yh-E2T-AflfURcNqM-18" style="edgeStyle=orthogonalEdgeStyle;rounded=0;orthogonalLoop=1;jettySize=auto;html=1;exitX=0.5;exitY=1;exitDx=0;exitDy=0;" edge="1" parent="n52Yh-E2T-AflfURcNqM-8" source="n52Yh-E2T-AflfURcNqM-9" target="n52Yh-E2T-AflfURcNqM-12">
          <mxGeometry relative="1" as="geometry" />
        </mxCell>
        <mxCell id="n52Yh-E2T-AflfURcNqM-9" value="Send request" style="ellipse;whiteSpace=wrap;html=1;" vertex="1" parent="n52Yh-E2T-AflfURcNqM-8">
          <mxGeometry x="40" y="50" width="120" height="60" as="geometry" />
        </mxCell>
        <mxCell id="n52Yh-E2T-AflfURcNqM-12" value="Notify by email" style="ellipse;whiteSpace=wrap;html=1;" vertex="1" parent="n52Yh-E2T-AflfURcNqM-8">
          <mxGeometry x="40" y="150" width="120" height="60" as="geometry" />
        </mxCell>
        <mxCell id="n52Yh-E2T-AflfURcNqM-10" value="Approve request" style="ellipse;whiteSpace=wrap;html=1;" vertex="1" parent="n52Yh-E2T-AflfURcNqM-8">
          <mxGeometry x="210" y="160" width="120" height="60" as="geometry" />
        </mxCell>
        <mxCell id="n52Yh-E2T-AflfURcNqM-11" value="Reject request" style="ellipse;whiteSpace=wrap;html=1;" vertex="1" parent="n52Yh-E2T-AflfURcNqM-8">
          <mxGeometry x="210" y="400" width="120" height="60" as="geometry" />
        </mxCell>
        <mxCell id="n52Yh-E2T-AflfURcNqM-28" style="edgeStyle=orthogonalEdgeStyle;rounded=0;orthogonalLoop=1;jettySize=auto;html=1;exitX=0;exitY=0;exitDx=0;exitDy=0;entryX=1;entryY=0.5;entryDx=0;entryDy=0;" edge="1" parent="n52Yh-E2T-AflfURcNqM-8" source="n52Yh-E2T-AflfURcNqM-21" target="n52Yh-E2T-AflfURcNqM-12">
          <mxGeometry relative="1" as="geometry" />
        </mxCell>
        <mxCell id="n52Yh-E2T-AflfURcNqM-21" value="Handle request" style="ellipse;whiteSpace=wrap;html=1;" vertex="1" parent="n52Yh-E2T-AflfURcNqM-8">
          <mxGeometry x="210" y="275" width="120" height="60" as="geometry" />
        </mxCell>
        <mxCell id="n52Yh-E2T-AflfURcNqM-23" style="edgeStyle=orthogonalEdgeStyle;rounded=0;orthogonalLoop=1;jettySize=auto;html=1;exitX=0.5;exitY=1;exitDx=0;exitDy=0;entryX=0.5;entryY=0;entryDx=0;entryDy=0;dashed=1;" edge="1" parent="n52Yh-E2T-AflfURcNqM-8" source="n52Yh-E2T-AflfURcNqM-10" target="n52Yh-E2T-AflfURcNqM-21">
          <mxGeometry relative="1" as="geometry" />
        </mxCell>
        <mxCell id="n52Yh-E2T-AflfURcNqM-25" style="edgeStyle=orthogonalEdgeStyle;rounded=0;orthogonalLoop=1;jettySize=auto;html=1;exitX=0.5;exitY=0;exitDx=0;exitDy=0;entryX=0.5;entryY=1;entryDx=0;entryDy=0;dashed=1;" edge="1" parent="n52Yh-E2T-AflfURcNqM-8" source="n52Yh-E2T-AflfURcNqM-11" target="n52Yh-E2T-AflfURcNqM-21">
          <mxGeometry relative="1" as="geometry" />
        </mxCell>
        <mxCell id="n52Yh-E2T-AflfURcNqM-24" value="&amp;lt;include&amp;gt;" style="text;html=1;strokeColor=none;fillColor=none;align=center;verticalAlign=middle;whiteSpace=wrap;rounded=0;" vertex="1" parent="n52Yh-E2T-AflfURcNqM-8">
          <mxGeometry x="280" y="240" width="40" height="20" as="geometry" />
        </mxCell>
        <mxCell id="n52Yh-E2T-AflfURcNqM-26" value="&amp;lt;include&amp;gt;" style="text;html=1;strokeColor=none;fillColor=none;align=center;verticalAlign=middle;whiteSpace=wrap;rounded=0;" vertex="1" parent="n52Yh-E2T-AflfURcNqM-8">
          <mxGeometry x="280" y="360" width="40" height="20" as="geometry" />
        </mxCell>
        <mxCell id="n52Yh-E2T-AflfURcNqM-27" style="edgeStyle=orthogonalEdgeStyle;rounded=0;orthogonalLoop=1;jettySize=auto;html=1;exitX=1;exitY=1;exitDx=0;exitDy=0;exitPerimeter=0;entryX=0;entryY=0.5;entryDx=0;entryDy=0;" edge="1" parent="1" source="n52Yh-E2T-AflfURcNqM-16" target="n52Yh-E2T-AflfURcNqM-21">
          <mxGeometry relative="1" as="geometry" />
        </mxCell>
        <mxCell id="n52Yh-E2T-AflfURcNqM-16" value="Approver" style="shape=umlActor;verticalLabelPosition=bottom;verticalAlign=top;html=1;outlineConnect=0;" vertex="1" parent="1">
          <mxGeometry x="60" y="220" width="30" height="60" as="geometry" />
        </mxCell>
        <mxCell id="n52Yh-E2T-AflfURcNqM-20" style="edgeStyle=orthogonalEdgeStyle;rounded=0;orthogonalLoop=1;jettySize=auto;html=1;exitX=0.5;exitY=1;exitDx=0;exitDy=0;entryX=1;entryY=0.3333333333333333;entryDx=0;entryDy=0;entryPerimeter=0;" edge="1" parent="1" source="n52Yh-E2T-AflfURcNqM-12" target="n52Yh-E2T-AflfURcNqM-16">
          <mxGeometry relative="1" as="geometry" />
        </mxCell>
        <mxCell id="n52Yh-E2T-AflfURcNqM-29" style="edgeStyle=orthogonalEdgeStyle;rounded=0;orthogonalLoop=1;jettySize=auto;html=1;exitX=0;exitY=0.5;exitDx=0;exitDy=0;entryX=1;entryY=1;entryDx=0;entryDy=0;entryPerimeter=0;" edge="1" parent="1" source="n52Yh-E2T-AflfURcNqM-12" target="n52Yh-E2T-AflfURcNqM-1">
          <mxGeometry relative="1" as="geometry" />
        </mxCell>
      </root>
    </mxGraphModel>
  </diagram>
</mxfile>
